<svg xmlns="http://www.w3.org/2000/svg" viewBox="0 0 640 400" width="640" height="400"><defs><pattern id="t" width="110" height="110" patternUnits="userSpaceOnUse"><rect width="110" height="110" fill="#C8AD80"/><ellipse cx="26.2" cy="59.9" rx="3.2" ry="2.8" transform="rotate(160 26.2 59.9)" fill="#E6D6B4"/><ellipse cx="7.2" cy="1.4" rx="3.9" ry="3.1" transform="rotate(59 7.2 1.4)" fill="#B8986A"/><ellipse cx="7.2" cy="111.4" rx="3.9" ry="3.1" transform="rotate(59 7.2 111.4)" fill="#B8986A"/><ellipse cx="109.5" cy="51.7" rx="3.9" ry="3.3" transform="rotate(163 109.5 51.7)" fill="#B8986A"/><ellipse cx="-0.5" cy="51.7" rx="3.9" ry="3.3" transform="rotate(163 -0.5 51.7)" fill="#B8986A"/><ellipse cx="25.5" cy="16.7" rx="4.1" ry="3.3" transform="rotate(3 25.5 16.7)" fill="#8F7049"/><ellipse cx="85.5" cy="17.5" rx="4.1" ry="2.9" transform="rotate(7 85.5 17.5)" fill="#DCC79F"/><ellipse cx="52.0" cy="79.1" rx="4.0" ry="3.7" transform="rotate(109 52.0 79.1)" fill="#A9875A"/><ellipse cx="80.1" cy="63.5" rx="4.1" ry="3.1" transform="rotate(93 80.1 63.5)" fill="#C9AE7C"/><ellipse cx="3.9" cy="54.4" rx="3.0" ry="2.7" transform="rotate(160 3.9 54.4)" fill="#DCC79F"/><ellipse cx="46.3" cy="91.7" rx="3.5" ry="3.0" transform="rotate(104 46.3 91.7)" fill="#E6D6B4"/><ellipse cx="25.6" cy="37.0" rx="4.1" ry="2.9" transform="rotate(71 25.6 37.0)" fill="#E6D6B4"/><ellipse cx="73.8" cy="17.9" rx="4.0" ry="3.9" transform="rotate(146 73.8 17.9)" fill="#E6D6B4"/><ellipse cx="11.4" cy="72.1" rx="3.6" ry="3.6" transform="rotate(68 11.4 72.1)" fill="#DCC79F"/><ellipse cx="13.7" cy="53.0" rx="3.6" ry="3.1" transform="rotate(88 13.7 53.0)" fill="#C9AE7C"/><ellipse cx="45.2" cy="16.6" rx="3.1" ry="2.9" transform="rotate(30 45.2 16.6)" fill="#C9AE7C"/><ellipse cx="66.5" cy="83.8" rx="3.2" ry="2.8" transform="rotate(141 66.5 83.8)" fill="#DCC79F"/><ellipse cx="55.6" cy="109.8" rx="3.1" ry="2.2" transform="rotate(153 55.6 109.8)" fill="#E6D6B4"/><ellipse cx="55.6" cy="-0.2" rx="3.1" ry="2.2" transform="rotate(153 55.6 -0.2)" fill="#E6D6B4"/><ellipse cx="3.5" cy="21.7" rx="3.3" ry="2.9" transform="rotate(39 3.5 21.7)" fill="#8F7049"/><ellipse cx="4.7" cy="95.5" rx="3.1" ry="3.1" transform="rotate(96 4.7 95.5)" fill="#A9875A"/><ellipse cx="50.6" cy="57.2" rx="3.6" ry="3.2" transform="rotate(143 50.6 57.2)" fill="#C9AE7C"/><ellipse cx="68.2" cy="103.5" rx="3.4" ry="2.8" transform="rotate(60 68.2 103.5)" fill="#DCC79F"/><ellipse cx="48.1" cy="28.4" rx="3.1" ry="2.5" transform="rotate(106 48.1 28.4)" fill="#E6D6B4"/><ellipse cx="34.6" cy="41.4" rx="3.5" ry="2.6" transform="rotate(162 34.6 41.4)" fill="#8F7049"/><ellipse cx="36.6" cy="38.8" rx="4.1" ry="3.6" transform="rotate(71 36.6 38.8)" fill="#8F7049"/><ellipse cx="53.8" cy="64.8" rx="4.1" ry="2.9" transform="rotate(94 53.8 64.8)" fill="#DCC79F"/><ellipse cx="69.1" cy="32.8" rx="3.6" ry="2.7" transform="rotate(47 69.1 32.8)" fill="#DCC79F"/><ellipse cx="83.4" cy="92.8" rx="3.0" ry="2.8" transform="rotate(26 83.4 92.8)" fill="#C9AE7C"/><ellipse cx="106.9" cy="75.2" rx="2.8" ry="2.4" transform="rotate(167 106.9 75.2)" fill="#DCC79F"/><ellipse cx="26.3" cy="20.6" rx="3.3" ry="3.0" transform="rotate(26 26.3 20.6)" fill="#E6D6B4"/><ellipse cx="35.4" cy="36.7" rx="3.9" ry="3.3" transform="rotate(43 35.4 36.7)" fill="#C9AE7C"/><ellipse cx="37.0" cy="71.5" rx="4.0" ry="3.4" transform="rotate(57 37.0 71.5)" fill="#C9AE7C"/><ellipse cx="3.7" cy="105.3" rx="3.1" ry="3.0" transform="rotate(147 3.7 105.3)" fill="#B8986A"/><ellipse cx="95.0" cy="37.4" rx="3.9" ry="2.8" transform="rotate(158 95.0 37.4)" fill="#DCC79F"/><ellipse cx="64.8" cy="46.3" rx="3.4" ry="3.3" transform="rotate(118 64.8 46.3)" fill="#DCC79F"/><ellipse cx="69.8" cy="31.9" rx="3.5" ry="2.5" transform="rotate(105 69.8 31.9)" fill="#B8986A"/><ellipse cx="22.0" cy="52.5" rx="3.9" ry="3.5" transform="rotate(130 22.0 52.5)" fill="#A9875A"/><ellipse cx="61.5" cy="108.4" rx="3.7" ry="2.7" transform="rotate(116 61.5 108.4)" fill="#8F7049"/><ellipse cx="61.5" cy="-1.6" rx="3.7" ry="2.7" transform="rotate(116 61.5 -1.6)" fill="#8F7049"/><ellipse cx="82.3" cy="106.0" rx="3.5" ry="3.4" transform="rotate(17 82.3 106.0)" fill="#E6D6B4"/><ellipse cx="106.8" cy="13.2" rx="3.0" ry="2.1" transform="rotate(177 106.8 13.2)" fill="#E6D6B4"/><ellipse cx="101.6" cy="98.6" rx="4.0" ry="3.5" transform="rotate(3 101.6 98.6)" fill="#A9875A"/><ellipse cx="82.0" cy="18.9" rx="3.1" ry="2.8" transform="rotate(134 82.0 18.9)" fill="#E6D6B4"/><ellipse cx="45.5" cy="103.3" rx="3.6" ry="2.9" transform="rotate(64 45.5 103.3)" fill="#E6D6B4"/><ellipse cx="52.5" cy="86.1" rx="3.2" ry="2.4" transform="rotate(136 52.5 86.1)" fill="#C9AE7C"/><ellipse cx="18.8" cy="87.1" rx="4.1" ry="3.8" transform="rotate(1 18.8 87.1)" fill="#A9875A"/><ellipse cx="69.1" cy="94.9" rx="2.7" ry="2.1" transform="rotate(68 69.1 94.9)" fill="#E6D6B4"/><ellipse cx="58.0" cy="46.5" rx="3.4" ry="3.1" transform="rotate(0 58.0 46.5)" fill="#C9AE7C"/><ellipse cx="85.3" cy="5.1" rx="2.7" ry="2.3" transform="rotate(8 85.3 5.1)" fill="#8F7049"/><ellipse cx="9.5" cy="55.2" rx="3.1" ry="2.5" transform="rotate(89 9.5 55.2)" fill="#A9875A"/><ellipse cx="71.2" cy="64.5" rx="3.2" ry="2.4" transform="rotate(84 71.2 64.5)" fill="#A9875A"/><ellipse cx="13.6" cy="61.1" rx="3.7" ry="3.0" transform="rotate(20 13.6 61.1)" fill="#E6D6B4"/><ellipse cx="19.6" cy="41.1" rx="3.6" ry="3.3" transform="rotate(97 19.6 41.1)" fill="#8F7049"/><ellipse cx="88.1" cy="68.5" rx="3.3" ry="2.7" transform="rotate(127 88.1 68.5)" fill="#8F7049"/><ellipse cx="34.6" cy="104.5" rx="3.3" ry="2.3" transform="rotate(55 34.6 104.5)" fill="#E6D6B4"/><ellipse cx="29.7" cy="64.9" rx="3.9" ry="3.0" transform="rotate(33 29.7 64.9)" fill="#C9AE7C"/><ellipse cx="103.0" cy="41.2" rx="4.0" ry="3.8" transform="rotate(67 103.0 41.2)" fill="#C9AE7C"/><ellipse cx="51.1" cy="13.5" rx="3.9" ry="3.5" transform="rotate(135 51.1 13.5)" fill="#A9875A"/><ellipse cx="73.4" cy="80.7" rx="3.5" ry="2.6" transform="rotate(150 73.4 80.7)" fill="#8F7049"/><ellipse cx="0.5" cy="15.8" rx="3.8" ry="2.7" transform="rotate(23 0.5 15.8)" fill="#E6D6B4"/><ellipse cx="110.5" cy="15.8" rx="3.8" ry="2.7" transform="rotate(23 110.5 15.8)" fill="#E6D6B4"/><ellipse cx="10.9" cy="96.9" rx="2.9" ry="2.0" transform="rotate(31 10.9 96.9)" fill="#C9AE7C"/><ellipse cx="92.8" cy="74.1" rx="3.9" ry="3.9" transform="rotate(148 92.8 74.1)" fill="#DCC79F"/><ellipse cx="87.9" cy="4.0" rx="3.8" ry="3.3" transform="rotate(61 87.9 4.0)" fill="#C9AE7C"/><ellipse cx="61.0" cy="11.0" rx="3.5" ry="3.0" transform="rotate(144 61.0 11.0)" fill="#B8986A"/><ellipse cx="91.1" cy="26.6" rx="2.9" ry="2.2" transform="rotate(157 91.1 26.6)" fill="#8F7049"/><ellipse cx="82.9" cy="43.3" rx="3.2" ry="2.6" transform="rotate(89 82.9 43.3)" fill="#E6D6B4"/><ellipse cx="46.0" cy="9.2" rx="3.4" ry="3.4" transform="rotate(105 46.0 9.2)" fill="#8F7049"/><ellipse cx="106.4" cy="45.7" rx="3.5" ry="3.1" transform="rotate(132 106.4 45.7)" fill="#8F7049"/><ellipse cx="53.2" cy="70.7" rx="4.0" ry="3.0" transform="rotate(24 53.2 70.7)" fill="#A9875A"/><ellipse cx="82.3" cy="100.8" rx="3.4" ry="2.9" transform="rotate(47 82.3 100.8)" fill="#B8986A"/><ellipse cx="29.4" cy="21.9" rx="3.5" ry="2.8" transform="rotate(59 29.4 21.9)" fill="#8F7049"/><ellipse cx="59.2" cy="85.7" rx="3.7" ry="3.5" transform="rotate(152 59.2 85.7)" fill="#E6D6B4"/><ellipse cx="64.3" cy="29.4" rx="2.9" ry="2.1" transform="rotate(122 64.3 29.4)" fill="#A9875A"/><ellipse cx="22.1" cy="62.7" rx="3.0" ry="2.5" transform="rotate(36 22.1 62.7)" fill="#A9875A"/><ellipse cx="109.0" cy="52.8" rx="3.6" ry="3.0" transform="rotate(167 109.0 52.8)" fill="#E6D6B4"/><ellipse cx="-1.0" cy="52.8" rx="3.6" ry="3.0" transform="rotate(167 -1.0 52.8)" fill="#E6D6B4"/><ellipse cx="3.1" cy="109.2" rx="2.7" ry="2.7" transform="rotate(11 3.1 109.2)" fill="#A9875A"/><ellipse cx="3.1" cy="-0.8" rx="2.7" ry="2.7" transform="rotate(11 3.1 -0.8)" fill="#A9875A"/><ellipse cx="100.2" cy="98.0" rx="3.6" ry="3.4" transform="rotate(17 100.2 98.0)" fill="#B8986A"/><ellipse cx="93.9" cy="26.6" rx="2.9" ry="2.3" transform="rotate(47 93.9 26.6)" fill="#E6D6B4"/><ellipse cx="77.5" cy="94.4" rx="4.0" ry="3.1" transform="rotate(11 77.5 94.4)" fill="#DCC79F"/><ellipse cx="20.2" cy="10.0" rx="3.9" ry="2.9" transform="rotate(67 20.2 10.0)" fill="#DCC79F"/><ellipse cx="4.0" cy="49.8" rx="3.8" ry="3.0" transform="rotate(7 4.0 49.8)" fill="#DCC79F"/><ellipse cx="36.5" cy="41.8" rx="2.7" ry="2.4" transform="rotate(125 36.5 41.8)" fill="#A9875A"/><ellipse cx="13.8" cy="35.1" rx="4.0" ry="2.9" transform="rotate(110 13.8 35.1)" fill="#C9AE7C"/><ellipse cx="48.2" cy="58.0" rx="3.0" ry="2.6" transform="rotate(179 48.2 58.0)" fill="#DCC79F"/><ellipse cx="74.6" cy="40.5" rx="3.3" ry="3.0" transform="rotate(171 74.6 40.5)" fill="#8F7049"/><ellipse cx="103.9" cy="89.9" rx="2.8" ry="2.7" transform="rotate(86 103.9 89.9)" fill="#8F7049"/><ellipse cx="62.3" cy="57.8" rx="3.7" ry="3.1" transform="rotate(15 62.3 57.8)" fill="#8F7049"/><ellipse cx="32.4" cy="80.1" rx="3.8" ry="3.4" transform="rotate(161 32.4 80.1)" fill="#B8986A"/><ellipse cx="19.7" cy="97.9" rx="3.6" ry="2.7" transform="rotate(143 19.7 97.9)" fill="#B8986A"/><ellipse cx="101.3" cy="70.9" rx="3.6" ry="3.0" transform="rotate(76 101.3 70.9)" fill="#8F7049"/><ellipse cx="20.6" cy="53.1" rx="3.9" ry="3.5" transform="rotate(27 20.6 53.1)" fill="#8F7049"/><ellipse cx="19.9" cy="60.9" rx="3.5" ry="2.9" transform="rotate(25 19.9 60.9)" fill="#DCC79F"/><ellipse cx="29.8" cy="5.9" rx="2.8" ry="2.4" transform="rotate(69 29.8 5.9)" fill="#B8986A"/><ellipse cx="76.5" cy="56.6" rx="4.0" ry="3.9" transform="rotate(114 76.5 56.6)" fill="#E6D6B4"/><ellipse cx="89.0" cy="7.6" rx="3.4" ry="3.4" transform="rotate(38 89.0 7.6)" fill="#DCC79F"/><ellipse cx="64.9" cy="75.0" rx="3.5" ry="3.4" transform="rotate(28 64.9 75.0)" fill="#B8986A"/><ellipse cx="76.8" cy="62.4" rx="3.7" ry="3.0" transform="rotate(32 76.8 62.4)" fill="#E6D6B4"/><ellipse cx="66.9" cy="94.5" rx="3.9" ry="3.3" transform="rotate(43 66.9 94.5)" fill="#E6D6B4"/><ellipse cx="19.7" cy="95.5" rx="3.2" ry="2.5" transform="rotate(113 19.7 95.5)" fill="#A9875A"/><ellipse cx="104.4" cy="42.1" rx="3.5" ry="3.0" transform="rotate(162 104.4 42.1)" fill="#A9875A"/><ellipse cx="107.5" cy="75.5" rx="3.1" ry="2.9" transform="rotate(123 107.5 75.5)" fill="#C9AE7C"/><ellipse cx="-2.5" cy="75.5" rx="3.1" ry="2.9" transform="rotate(123 -2.5 75.5)" fill="#C9AE7C"/><ellipse cx="66.2" cy="80.0" rx="2.6" ry="2.4" transform="rotate(169 66.2 80.0)" fill="#B8986A"/><ellipse cx="54.1" cy="57.6" rx="3.3" ry="2.5" transform="rotate(135 54.1 57.6)" fill="#B8986A"/><ellipse cx="4.1" cy="55.0" rx="3.6" ry="3.0" transform="rotate(144 4.1 55.0)" fill="#DCC79F"/><ellipse cx="105.5" cy="98.1" rx="2.8" ry="2.6" transform="rotate(159 105.5 98.1)" fill="#C9AE7C"/><ellipse cx="2.8" cy="68.0" rx="3.4" ry="2.9" transform="rotate(4 2.8 68.0)" fill="#DCC79F"/><ellipse cx="112.8" cy="68.0" rx="3.4" ry="2.9" transform="rotate(4 112.8 68.0)" fill="#DCC79F"/><ellipse cx="35.5" cy="95.8" rx="3.7" ry="2.7" transform="rotate(153 35.5 95.8)" fill="#C9AE7C"/><ellipse cx="78.8" cy="81.4" rx="3.1" ry="3.0" transform="rotate(16 78.8 81.4)" fill="#B8986A"/><ellipse cx="48.1" cy="83.3" rx="3.4" ry="2.5" transform="rotate(10 48.1 83.3)" fill="#A9875A"/><ellipse cx="8.6" cy="22.0" rx="2.9" ry="2.4" transform="rotate(179 8.6 22.0)" fill="#C9AE7C"/><ellipse cx="59.1" cy="46.4" rx="3.6" ry="2.9" transform="rotate(118 59.1 46.4)" fill="#A9875A"/><ellipse cx="83.3" cy="44.2" rx="2.9" ry="2.8" transform="rotate(65 83.3 44.2)" fill="#DCC79F"/><ellipse cx="93.4" cy="49.3" rx="3.2" ry="2.6" transform="rotate(0 93.4 49.3)" fill="#B8986A"/><ellipse cx="28.5" cy="40.7" rx="4.0" ry="3.4" transform="rotate(40 28.5 40.7)" fill="#B8986A"/><ellipse cx="2.4" cy="64.3" rx="3.4" ry="3.0" transform="rotate(35 2.4 64.3)" fill="#C9AE7C"/><ellipse cx="112.4" cy="64.3" rx="3.4" ry="3.0" transform="rotate(35 112.4 64.3)" fill="#C9AE7C"/><ellipse cx="67.0" cy="48.7" rx="2.9" ry="2.8" transform="rotate(103 67.0 48.7)" fill="#A9875A"/><ellipse cx="35.0" cy="3.6" rx="3.7" ry="2.9" transform="rotate(10 35.0 3.6)" fill="#A9875A"/><ellipse cx="35.0" cy="113.6" rx="3.7" ry="2.9" transform="rotate(10 35.0 113.6)" fill="#A9875A"/><ellipse cx="54.3" cy="100.0" rx="4.0" ry="3.1" transform="rotate(99 54.3 100.0)" fill="#A9875A"/><ellipse cx="21.0" cy="36.6" rx="2.8" ry="2.7" transform="rotate(152 21.0 36.6)" fill="#C9AE7C"/><ellipse cx="88.8" cy="32.0" rx="4.2" ry="4.1" transform="rotate(76 88.8 32.0)" fill="#A9875A"/><ellipse cx="27.5" cy="29.2" rx="3.9" ry="3.5" transform="rotate(88 27.5 29.2)" fill="#DCC79F"/><ellipse cx="10.3" cy="75.1" rx="4.2" ry="3.6" transform="rotate(0 10.3 75.1)" fill="#C9AE7C"/><ellipse cx="3.3" cy="10.0" rx="2.9" ry="2.0" transform="rotate(13 3.3 10.0)" fill="#B8986A"/><ellipse cx="72.0" cy="99.0" rx="2.9" ry="2.9" transform="rotate(122 72.0 99.0)" fill="#DCC79F"/><ellipse cx="88.4" cy="100.9" rx="4.1" ry="2.9" transform="rotate(78 88.4 100.9)" fill="#E6D6B4"/><ellipse cx="69.5" cy="43.4" rx="4.1" ry="3.1" transform="rotate(105 69.5 43.4)" fill="#C9AE7C"/><ellipse cx="55.8" cy="60.2" rx="3.5" ry="3.2" transform="rotate(103 55.8 60.2)" fill="#B8986A"/><ellipse cx="92.1" cy="95.1" rx="3.2" ry="3.2" transform="rotate(91 92.1 95.1)" fill="#B8986A"/><ellipse cx="39.9" cy="45.6" rx="3.0" ry="2.8" transform="rotate(123 39.9 45.6)" fill="#DCC79F"/><ellipse cx="29.6" cy="18.7" rx="3.8" ry="3.3" transform="rotate(178 29.6 18.7)" fill="#A9875A"/><ellipse cx="104.4" cy="4.7" rx="2.9" ry="2.7" transform="rotate(119 104.4 4.7)" fill="#C9AE7C"/><ellipse cx="83.4" cy="74.5" rx="2.8" ry="2.1" transform="rotate(164 83.4 74.5)" fill="#C9AE7C"/><ellipse cx="96.6" cy="95.9" rx="3.3" ry="3.2" transform="rotate(165 96.6 95.9)" fill="#DCC79F"/><ellipse cx="109.7" cy="0.2" rx="2.9" ry="2.7" transform="rotate(26 109.7 0.2)" fill="#DCC79F"/><ellipse cx="-0.3" cy="0.2" rx="2.9" ry="2.7" transform="rotate(26 -0.3 0.2)" fill="#DCC79F"/><ellipse cx="-0.3" cy="110.2" rx="2.9" ry="2.7" transform="rotate(26 -0.3 110.2)" fill="#DCC79F"/><ellipse cx="109.7" cy="110.2" rx="2.9" ry="2.7" transform="rotate(26 109.7 110.2)" fill="#DCC79F"/><ellipse cx="62.6" cy="12.1" rx="2.7" ry="2.4" transform="rotate(61 62.6 12.1)" fill="#8F7049"/><ellipse cx="5.4" cy="16.8" rx="3.6" ry="3.2" transform="rotate(2 5.4 16.8)" fill="#C9AE7C"/><ellipse cx="25.3" cy="106.4" rx="3.0" ry="2.6" transform="rotate(107 25.3 106.4)" fill="#E6D6B4"/><ellipse cx="85.9" cy="66.5" rx="3.9" ry="3.3" transform="rotate(48 85.9 66.5)" fill="#A9875A"/><ellipse cx="19.5" cy="8.7" rx="3.9" ry="2.9" transform="rotate(6 19.5 8.7)" fill="#C9AE7C"/><ellipse cx="21.9" cy="98.3" rx="2.7" ry="2.3" transform="rotate(57 21.9 98.3)" fill="#8F7049"/><ellipse cx="67.7" cy="70.6" rx="3.8" ry="3.7" transform="rotate(88 67.7 70.6)" fill="#A9875A"/><ellipse cx="66.3" cy="49.0" rx="2.8" ry="2.6" transform="rotate(152 66.3 49.0)" fill="#A9875A"/><ellipse cx="89.6" cy="22.7" rx="3.5" ry="2.9" transform="rotate(164 89.6 22.7)" fill="#C9AE7C"/><ellipse cx="37.6" cy="21.1" rx="3.8" ry="3.7" transform="rotate(175 37.6 21.1)" fill="#8F7049"/><ellipse cx="40.1" cy="86.3" rx="2.7" ry="2.3" transform="rotate(63 40.1 86.3)" fill="#DCC79F"/><ellipse cx="92.2" cy="6.9" rx="3.0" ry="2.5" transform="rotate(64 92.2 6.9)" fill="#B8986A"/><ellipse cx="35.6" cy="82.4" rx="2.9" ry="2.2" transform="rotate(156 35.6 82.4)" fill="#A9875A"/><ellipse cx="102.4" cy="58.9" rx="3.3" ry="3.2" transform="rotate(159 102.4 58.9)" fill="#A9875A"/><ellipse cx="53.3" cy="85.1" rx="3.3" ry="3.2" transform="rotate(8 53.3 85.1)" fill="#DCC79F"/><ellipse cx="105.3" cy="2.0" rx="4.0" ry="2.9" transform="rotate(38 105.3 2.0)" fill="#DCC79F"/><ellipse cx="105.3" cy="112.0" rx="4.0" ry="2.9" transform="rotate(38 105.3 112.0)" fill="#DCC79F"/><ellipse cx="55.4" cy="6.8" rx="3.4" ry="2.5" transform="rotate(53 55.4 6.8)" fill="#DCC79F"/><ellipse cx="54.1" cy="4.1" rx="3.3" ry="2.5" transform="rotate(73 54.1 4.1)" fill="#B8986A"/><ellipse cx="11.4" cy="32.9" rx="3.3" ry="2.4" transform="rotate(39 11.4 32.9)" fill="#A9875A"/></pattern><linearGradient id="g" x1="0" y1="0" x2="0" y2="1"><stop offset="0" stop-color="#fff" stop-opacity=".10"/><stop offset="1" stop-color="#000" stop-opacity=".18"/></linearGradient></defs><rect width="640" height="400" fill="url(#t)"/><rect width="640" height="400" fill="url(#g)"/></svg>